<svg width="23" height="22" viewBox="0 0 23 22" fill="none" xmlns="http://www.w3.org/2000/svg">
<path fill-rule="evenodd" clip-rule="evenodd" d="M15.6084 18.3481C15.6084 17.3391 16.4256 16.522 17.4345 16.522C18.4434 16.522 19.2606 17.3391 19.2606 18.3481C19.2606 19.357 18.4434 20.1741 17.4345 20.1741C16.4256 20.1741 15.6084 19.357 15.6084 18.3481V18.3481Z" stroke="#4B5C58" stroke-width="2" stroke-linecap="round" stroke-linejoin="round"/>
<path fill-rule="evenodd" clip-rule="evenodd" d="M6.47852 18.3481C6.47852 17.3391 7.29569 16.522 8.3046 16.522C9.31352 16.522 10.1307 17.3391 10.1307 18.3481C10.1307 19.357 9.31352 20.1741 8.3046 20.1741C7.29569 20.1741 6.47852 19.357 6.47852 18.3481V18.3481Z" stroke="#4B5C58" stroke-width="2" stroke-linecap="round" stroke-linejoin="round"/>
<path d="M1 1H3.73913L6.03817 12.4934C6.29383 13.7744 7.41778 14.6957 8.72343 14.6957H19.2609" stroke="#4B5C58" stroke-width="2" stroke-linecap="round" stroke-linejoin="round"/>
<path d="M4.65234 3.73926H22.0002L20.1741 11.0436L6.47843 12.8697" stroke="#4B5C58" stroke-width="2" stroke-linecap="round" stroke-linejoin="round"/>
</svg>
