<svg width="46" height="29" viewBox="0 0 46 29" fill="none" xmlns="http://www.w3.org/2000/svg">
<path fill-rule="evenodd" clip-rule="evenodd" d="M4.82609 23.9565C2.71217 23.9565 1 22.2443 1 20.1304V4.82609C1 2.71217 2.71217 1 4.82609 1H28.1117C29.1256 1 30.0993 1.40365 30.8167 2.12104L39.4407 10.745C40.5751 11.8795 41.9965 12.683 43.5499 13.0732C44.4031 13.2856 45 14.0508 45 14.9289V20.1304C45 22.2443 43.2878 23.9565 41.1739 23.9565" fill="white"/>
<path d="M4.82609 23.9565V23.9565C2.71217 23.9565 1 22.2443 1 20.1304V4.82609C1 2.71217 2.71217 1 4.82609 1H28.1117C29.1256 1 30.0993 1.40365 30.8167 2.12104L39.4407 10.745C40.5751 11.8795 41.9965 12.683 43.5499 13.0732C44.4031 13.2856 45 14.0508 45 14.9289V20.1304C45 22.2443 43.2878 23.9565 41.1739 23.9565" stroke="#C41E3A" stroke-width="2" stroke-linecap="round" stroke-linejoin="round" style="mix-blend-mode:multiply"/>
<path fill-rule="evenodd" clip-rule="evenodd" d="M12.4783 23.9565C12.4783 26.0704 10.7662 27.7825 8.65226 27.7825C6.53835 27.7825 4.82617 26.0704 4.82617 23.9565C4.82617 21.8425 6.53835 20.1304 8.65226 20.1304C10.7662 20.1304 12.4783 21.8425 12.4783 23.9565Z" fill="white"/>
<path fill-rule="evenodd" clip-rule="evenodd" d="M12.4783 23.9565C12.4783 26.0704 10.7662 27.7825 8.65226 27.7825C6.53835 27.7825 4.82617 26.0704 4.82617 23.9565C4.82617 21.8425 6.53835 20.1304 8.65226 20.1304C10.7662 20.1304 12.4783 21.8425 12.4783 23.9565Z" stroke="#C41E3A" stroke-width="2" stroke-linecap="round" stroke-linejoin="round" style="mix-blend-mode:multiply"/>
<path fill-rule="evenodd" clip-rule="evenodd" d="M41.1737 23.9565C41.1737 26.0704 39.4615 27.7825 37.3476 27.7825C35.2337 27.7825 33.5215 26.0704 33.5215 23.9565C33.5215 21.8425 35.2337 20.1304 37.3476 20.1304C39.4615 20.1304 41.1737 21.8425 41.1737 23.9565Z" fill="white"/>
<path fill-rule="evenodd" clip-rule="evenodd" d="M41.1737 23.9565C41.1737 26.0704 39.4615 27.7825 37.3476 27.7825C35.2337 27.7825 33.5215 26.0704 33.5215 23.9565C33.5215 21.8425 35.2337 20.1304 37.3476 20.1304C39.4615 20.1304 41.1737 21.8425 41.1737 23.9565Z" stroke="#C41E3A" stroke-width="2" stroke-linecap="round" stroke-linejoin="round" style="mix-blend-mode:multiply"/>
<path fill-rule="evenodd" clip-rule="evenodd" d="M33.522 23.9565H12.4785H33.522Z" fill="white"/>
<path d="M33.522 23.9565H12.4785" stroke="#C41E3A" stroke-width="2" stroke-linecap="round" stroke-linejoin="round" style="mix-blend-mode:multiply"/>
<path fill-rule="evenodd" clip-rule="evenodd" d="M23.9561 6.73901V12.4781H32.5648" fill="white"/>
<path d="M23.9561 6.73901V12.4781H32.5648" stroke="#C41E3A" stroke-width="2" stroke-linecap="round" stroke-linejoin="round" style="mix-blend-mode:multiply"/>
</svg>
