<svg width="25" height="16" viewBox="0 0 25 16" fill="none" xmlns="http://www.w3.org/2000/svg">
<path fill-rule="evenodd" clip-rule="evenodd" d="M7 13C7 14.105 6.105 15 5 15C3.895 15 3 14.105 3 13C3 11.895 3.895 11 5 11C6.105 11 7 11.895 7 13V13Z" stroke="#C41E3A" stroke-linecap="round" stroke-linejoin="round" style="mix-blend-mode:multiply"/>
<path fill-rule="evenodd" clip-rule="evenodd" d="M22 13C22 14.105 21.105 15 20 15C18.895 15 18 14.105 18 13C18 11.895 18.895 11 20 11C21.105 11 22 11.895 22 13V13Z" stroke="#C41E3A" stroke-linecap="round" stroke-linejoin="round" style="mix-blend-mode:multiply"/>
<path d="M3 13V13C1.895 13 1 12.105 1 11V3C1 1.895 1.895 1 3 1H15.172C15.702 1 16.211 1.211 16.586 1.586L21.094 6.094C21.687 6.687 22.43 7.107 23.242 7.311C23.688 7.422 24 7.822 24 8.281V11C24 12.105 23.105 13 22 13" stroke="#C41E3A" stroke-linecap="round" stroke-linejoin="round" style="mix-blend-mode:multiply"/>
<path d="M18 13H7" stroke="#C41E3A" stroke-linecap="round" stroke-linejoin="round" style="mix-blend-mode:multiply"/>
<path d="M13 4V7H17.5" stroke="#C41E3A" stroke-linecap="round" stroke-linejoin="round" style="mix-blend-mode:multiply"/>
</svg>
