<svg width="52" height="39" viewBox="0 0 52 39" fill="none" xmlns="http://www.w3.org/2000/svg">
<path fill-rule="evenodd" clip-rule="evenodd" d="M26 37.3636V1V37.3636Z" fill="white"/>
<path d="M26 37.3636V1" stroke="#09A603" stroke-width="2" stroke-linecap="round" stroke-linejoin="round"/>
<path d="M26 37L9 17.5V6L40.5 4L46 12L42.5 17.5L26 37Z" fill="white" stroke="#09A603"/>
<path fill-rule="evenodd" clip-rule="evenodd" d="M26.0002 37.3635L7.81836 30.5453V12.3635" fill="white"/>
<path d="M26.0002 37.3635L7.81836 30.5453V12.3635" stroke="#09A603" stroke-width="2" stroke-linecap="round" stroke-linejoin="round"/>
<path fill-rule="evenodd" clip-rule="evenodd" d="M26 1L7.81818 3.27273L1 12.3636L19.1818 10.0909L26 1Z" fill="white" stroke="#09A603" stroke-width="2" stroke-linecap="round" stroke-linejoin="round"/>
<path fill-rule="evenodd" clip-rule="evenodd" d="M26 37.3636V1V37.3636Z" fill="white"/>
<path d="M26 37.3636V1" stroke="#09A603" stroke-width="2" stroke-linecap="round" stroke-linejoin="round"/>
<path fill-rule="evenodd" clip-rule="evenodd" d="M26 37.3635L44.1818 30.5453V12.3635" fill="white"/>
<path d="M26 37.3635L44.1818 30.5453V12.3635" stroke="#09A603" stroke-width="2" stroke-linecap="round" stroke-linejoin="round"/>
<path fill-rule="evenodd" clip-rule="evenodd" d="M26 1L44.1818 3.27273L51 12.3636L32.8182 10.0909L26 1Z" fill="white" stroke="#09A603" stroke-width="2" stroke-linecap="round" stroke-linejoin="round"/>
<path fill-rule="evenodd" clip-rule="evenodd" d="M19.1816 30.5455V23.7273V30.5455Z" fill="white"/>
<path d="M19.1816 30.5455V23.7273" stroke="#09A603" stroke-width="2" stroke-linecap="round" stroke-linejoin="round"/>
<path fill-rule="evenodd" clip-rule="evenodd" d="M15.7734 27.1364L19.1825 23.7273L22.5916 27.1364" fill="white"/>
<path d="M15.7734 27.1364L19.1825 23.7273L22.5916 27.1364" stroke="#09A603" stroke-width="2" stroke-linecap="round" stroke-linejoin="round"/>
<path fill-rule="evenodd" clip-rule="evenodd" d="M30.5449 30.5454L36.2267 28.2727L30.5449 30.5454Z" fill="white"/>
<path d="M30.5449 30.5454L36.2267 28.2727" stroke="#09A603" stroke-width="2" stroke-linecap="round" stroke-linejoin="round"/>
</svg>
