<svg width="42" height="42" viewBox="0 0 42 42" fill="none" xmlns="http://www.w3.org/2000/svg">
<path d="M16.3623 24.9998H15.127L11.958 19.9558V24.9998H10.7227V17.8904H11.958L15.1367 22.9539V17.8904H16.3623V24.9998ZM21.9775 21.8259H19.0576V24.0134H22.4707V24.9998H17.8223V17.8904H22.4365V18.8865H19.0576V20.8494H21.9775V21.8259ZM29.0527 23.2419L30.1465 17.8904H31.3721L29.7314 24.9998H28.5498L27.1973 19.8093L25.8154 24.9998H24.6289L22.9883 17.8904H24.2139L25.3174 23.2322L26.6748 17.8904H27.71L29.0527 23.2419Z" fill="#A1232B"/>
<path fill-rule="evenodd" clip-rule="evenodd" d="M41 21C41 22.6418 37.5073 23.8018 37.1018 25.3164C36.6836 26.8836 39.1164 29.6309 38.3218 31.0036C37.5182 32.3945 33.9145 31.6564 32.7855 32.7855C31.6564 33.9145 32.3927 37.5182 31.0018 38.3218C29.6309 39.1164 26.8818 36.6836 25.3164 37.1036C23.8018 37.5073 22.6418 41 21 41C19.3582 41 18.1982 37.5073 16.6836 37.1036C15.1164 36.6836 12.3691 39.1164 10.9964 38.3218C9.60546 37.5182 10.3436 33.9145 9.21455 32.7855C8.08546 31.6564 4.48182 32.3927 3.67818 31.0018C2.88364 29.6309 5.31636 26.8818 4.89636 25.3164C4.49273 23.8018 1 22.6418 1 21C1 19.3582 4.49273 18.1982 4.89636 16.6836C5.31636 15.1164 2.88364 12.3691 3.67818 10.9964C4.48182 9.60546 8.08546 10.3436 9.21455 9.21455C10.3436 8.08546 9.60545 4.48182 10.9982 3.67818C12.3691 2.88364 15.1182 5.31636 16.6836 4.89636C18.1982 4.49273 19.3582 1 21 1C22.6418 1 23.8018 4.49273 25.3164 4.89636C26.8818 5.31636 29.6309 2.88364 31.0036 3.67818C32.3945 4.48182 31.6564 8.08546 32.7855 9.21455C33.9145 10.3436 37.5182 9.60727 38.3218 10.9982C39.1164 12.3691 36.6836 15.1182 37.1018 16.6836C37.5073 18.1982 41 19.3582 41 21V21Z" stroke="#A1232B" stroke-linecap="round" stroke-linejoin="round"/>
</svg>
