<svg width="34" height="34" viewBox="0 0 34 34" fill="none" xmlns="http://www.w3.org/2000/svg">
<path d="M13.0898 20H12.1016L9.56641 15.9648V20H8.57812V14.3125H9.56641L12.1094 18.3633V14.3125H13.0898V20ZM17.582 17.4609H15.2461V19.2109H17.9766V20H14.2578V14.3125H17.9492V15.1094H15.2461V16.6797H17.582V17.4609ZM23.2422 18.5938L24.1172 14.3125H25.0977L23.7852 20H22.8398L21.7578 15.8477L20.6523 20H19.7031L18.3906 14.3125H19.3711L20.2539 18.5859L21.3398 14.3125H22.168L23.2422 18.5938Z" fill="#A1232B"/>
<path fill-rule="evenodd" clip-rule="evenodd" d="M33 17C33 18.3135 30.2058 19.2415 29.8815 20.4531C29.5469 21.7069 31.4931 23.9047 30.8575 25.0029C30.2145 26.1156 27.3316 25.5251 26.4284 26.4284C25.5251 27.3316 26.1142 30.2145 25.0015 30.8575C23.9047 31.4931 21.7055 29.5469 20.4531 29.8829C19.2415 30.2058 18.3135 33 17 33C15.6865 33 14.7585 30.2058 13.5469 29.8829C12.2931 29.5469 10.0953 31.4931 8.99709 30.8575C7.88436 30.2145 8.47491 27.3316 7.57164 26.4284C6.66836 25.5251 3.78545 26.1142 3.14255 25.0015C2.50691 23.9047 4.45309 21.7055 4.11709 20.4531C3.79418 19.2415 1 18.3135 1 17C1 15.6865 3.79418 14.7585 4.11709 13.5469C4.45309 12.2931 2.50691 10.0953 3.14255 8.99709C3.78545 7.88436 6.66836 8.47491 7.57164 7.57164C8.47491 6.66836 7.88436 3.78545 8.99855 3.14255C10.0953 2.50691 12.2945 4.45309 13.5469 4.11709C14.7585 3.79418 15.6865 1 17 1C18.3135 1 19.2415 3.79418 20.4531 4.11709C21.7055 4.45309 23.9047 2.50691 25.0029 3.14255C26.1156 3.78545 25.5251 6.66836 26.4284 7.57164C27.3316 8.47491 30.2145 7.88582 30.8575 8.99855C31.4931 10.0953 29.5469 12.2945 29.8815 13.5469C30.2058 14.7585 33 15.6865 33 17V17Z" stroke="#A1232B" stroke-linecap="round" stroke-linejoin="round"/>
</svg>
