<svg width="34" height="34" viewBox="0 0 34 34" fill="none" xmlns="http://www.w3.org/2000/svg">
<path d="M12.6768 13.9609C12.6768 13.3594 12.8704 12.8672 13.2578 12.4844C13.6452 12.097 14.1533 11.9033 14.7822 11.9033C15.4202 11.9033 15.9307 12.097 16.3135 12.4844C16.7008 12.8672 16.8945 13.3708 16.8945 13.9951V14.4873C16.8945 15.0843 16.7008 15.5742 16.3135 15.957C15.9307 16.3398 15.4248 16.5312 14.7959 16.5312C14.1807 16.5312 13.6725 16.3444 13.2715 15.9707C12.875 15.5924 12.6768 15.0843 12.6768 14.4463V13.9609ZM13.8389 14.4873C13.8389 14.8018 13.9255 15.057 14.0986 15.2529C14.2764 15.4443 14.5088 15.54 14.7959 15.54C15.0785 15.54 15.3063 15.4443 15.4795 15.2529C15.6527 15.057 15.7393 14.7926 15.7393 14.46V13.9609C15.7393 13.6465 15.6504 13.3913 15.4727 13.1953C15.2995 12.9993 15.0693 12.9014 14.7822 12.9014C14.4951 12.9014 14.265 13.0016 14.0918 13.2021C13.9232 13.3981 13.8389 13.6579 13.8389 13.9814V14.4873ZM17.4619 19.5596C17.4619 18.9489 17.6602 18.4544 18.0566 18.0762C18.4531 17.6979 18.959 17.5088 19.5742 17.5088C20.194 17.5088 20.6999 17.6979 21.0918 18.0762C21.4883 18.4544 21.6865 18.9648 21.6865 19.6074V20.0928C21.6865 20.6852 21.4951 21.1751 21.1123 21.5625C20.734 21.9453 20.2259 22.1367 19.5879 22.1367C18.9499 22.1367 18.4349 21.9476 18.043 21.5693C17.6556 21.1865 17.4619 20.6829 17.4619 20.0586V19.5596ZM18.624 20.0928C18.624 20.4027 18.7129 20.6579 18.8906 20.8584C19.0729 21.0544 19.3053 21.1523 19.5879 21.1523C19.8796 21.1523 20.1074 21.0589 20.2715 20.8721C20.4401 20.6807 20.5244 20.4141 20.5244 20.0723V19.5596C20.5244 19.2406 20.4355 18.9854 20.2578 18.7939C20.0801 18.6025 19.8522 18.5068 19.5742 18.5068C19.2917 18.5068 19.0615 18.6025 18.8838 18.7939C18.7106 18.9854 18.624 19.2497 18.624 19.5869V20.0928ZM15.1377 21.2549L14.2832 20.7627L19.1436 12.9834L19.998 13.4756L15.1377 21.2549Z" fill="#A1232B"/>
<path fill-rule="evenodd" clip-rule="evenodd" d="M33 17C33 18.3135 30.2058 19.2415 29.8815 20.4531C29.5469 21.7069 31.4931 23.9047 30.8575 25.0029C30.2145 26.1156 27.3316 25.5251 26.4284 26.4284C25.5251 27.3316 26.1142 30.2145 25.0015 30.8575C23.9047 31.4931 21.7055 29.5469 20.4531 29.8829C19.2415 30.2058 18.3135 33 17 33C15.6865 33 14.7585 30.2058 13.5469 29.8829C12.2931 29.5469 10.0953 31.4931 8.99709 30.8575C7.88436 30.2145 8.47491 27.3316 7.57164 26.4284C6.66836 25.5251 3.78545 26.1142 3.14255 25.0015C2.50691 23.9047 4.45309 21.7055 4.11709 20.4531C3.79418 19.2415 1 18.3135 1 17C1 15.6865 3.79418 14.7585 4.11709 13.5469C4.45309 12.2931 2.50691 10.0953 3.14255 8.99709C3.78545 7.88436 6.66836 8.47491 7.57164 7.57164C8.47491 6.66836 7.88436 3.78545 8.99855 3.14255C10.0953 2.50691 12.2945 4.45309 13.5469 4.11709C14.7585 3.79418 15.6865 1 17 1C18.3135 1 19.2415 3.79418 20.4531 4.11709C21.7055 4.45309 23.9047 2.50691 25.0029 3.14255C26.1156 3.78545 25.5251 6.66836 26.4284 7.57164C27.3316 8.47491 30.2145 7.88582 30.8575 8.99855C31.4931 10.0953 29.5469 12.2945 29.8815 13.5469C30.2058 14.7585 33 15.6865 33 17V17Z" stroke="#A1232B" stroke-linecap="round" stroke-linejoin="round"/>
</svg>
