<svg width="24" height="24" viewBox="0 0 24 24" fill="none" xmlns="http://www.w3.org/2000/svg">
<path d="M15.8538 14.3536L12.5075 11.8439V6.73166C12.5075 6.21762 12.092 5.80212 11.578 5.80212C11.0639 5.80212 10.6484 6.21762 10.6484 6.73166V12.3088C10.6484 12.6015 10.786 12.8776 11.0203 13.0524L14.7383 15.8409C14.9056 15.9664 15.1008 16.0268 15.2951 16.0268C15.5786 16.0268 15.8574 15.8995 16.0396 15.6541C16.3483 15.2441 16.2646 14.6613 15.8538 14.3536Z" fill="#4F4F4F"/>
<path d="M12 0C5.3828 0 0 5.3828 0 12C0 18.6172 5.3828 24 12 24C18.6172 24 24 18.6172 24 12C24 5.3828 18.6172 0 12 0ZM12 22.141C6.40898 22.141 1.85902 17.591 1.85902 12C1.85902 6.40898 6.40898 1.85902 12 1.85902C17.592 1.85902 22.141 6.40898 22.141 12C22.141 17.591 17.591 22.141 12 22.141Z" fill="#4F4F4F"/>
</svg>
