<svg width="38" height="39" viewBox="0 0 38 39" fill="none" xmlns="http://www.w3.org/2000/svg">
<path fill-rule="evenodd" clip-rule="evenodd" d="M31.6667 0H6.33333C4.65363 0 3.04272 0.674284 1.85499 1.87452C0.66726 3.07475 0 4.70261 0 6.4V32C0 33.6974 0.66726 35.3252 1.85499 36.5255C3.04272 37.7257 4.65363 38.4 6.33333 38.4H31.6667C33.3464 38.4 34.9573 37.7257 36.145 36.5255C37.3327 35.3252 38 33.6974 38 32V6.4C38 4.70261 37.3327 3.07475 36.145 1.87452C34.9573 0.674284 33.3464 0 31.6667 0ZM34.8333 32C34.8333 32.8487 34.4997 33.6626 33.9058 34.2627C33.312 34.8629 32.5065 35.2 31.6667 35.2H6.33333C5.49348 35.2 4.68803 34.8629 4.09416 34.2627C3.5003 33.6626 3.16667 32.8487 3.16667 32V6.4C3.16667 5.55131 3.5003 4.73737 4.09416 4.13726C4.68803 3.53714 5.49348 3.2 6.33333 3.2H31.6667C32.5065 3.2 33.312 3.53714 33.9058 4.13726C34.4997 4.73737 34.8333 5.55131 34.8333 6.4V32ZM19 9.6001C17.1211 9.6001 15.2844 10.1631 13.7221 11.218C12.1598 12.2729 10.9422 13.7722 10.2231 15.5263C9.50412 17.2805 9.31598 19.2107 9.68254 21.073C10.0491 22.9352 10.9539 24.6457 12.2825 25.9883C13.6111 27.3309 15.3038 28.2452 17.1466 28.6156C18.9895 28.9861 20.8996 28.7959 22.6355 28.0693C24.3714 27.3427 25.8551 26.1123 26.899 24.5336C27.9428 22.9549 28.5 21.0988 28.5 19.2001C28.5 16.654 27.4991 14.2122 25.7175 12.4119C23.9359 10.6115 21.5196 9.6001 19 9.6001ZM19 25.6001C17.7474 25.6001 16.5229 25.2247 15.4814 24.5215C14.4399 23.8183 13.6281 22.8187 13.1488 21.6493C12.6694 20.4798 12.544 19.193 12.7884 17.9515C13.0327 16.71 13.6359 15.5697 14.5217 14.6746C15.4074 13.7796 16.5359 13.17 17.7644 12.9231C18.993 12.6761 20.2664 12.8029 21.4237 13.2873C22.5809 13.7717 23.5701 14.592 24.266 15.6444C24.9619 16.6969 25.3333 17.9343 25.3333 19.2001C25.3333 20.8975 24.6661 22.5253 23.4783 23.7256C22.2906 24.9258 20.6797 25.6001 19 25.6001ZM31.667 8.7999C31.667 10.1254 30.6037 11.1999 29.292 11.1999C27.9803 11.1999 26.917 10.1254 26.917 8.7999C26.917 7.47442 27.9803 6.3999 29.292 6.3999C30.6037 6.3999 31.667 7.47442 31.667 8.7999Z" fill="#A1232B"/>
</svg>
