<svg width="25" height="25" viewBox="0 0 25 25" fill="none" xmlns="http://www.w3.org/2000/svg">
<path fill-rule="evenodd" clip-rule="evenodd" d="M20.1823 0H4.03646C2.96592 0 1.93923 0.435475 1.18225 1.21063C0.425269 1.98578 0 3.03711 0 4.13333V20.6667C0 21.7629 0.425269 22.8142 1.18225 23.5894C1.93923 24.3645 2.96592 24.8 4.03646 24.8H20.1823C21.2528 24.8 22.2795 24.3645 23.0365 23.5894C23.7935 22.8142 24.2188 21.7629 24.2188 20.6667V4.13333C24.2188 3.03711 23.7935 1.98578 23.0365 1.21063C22.2795 0.435475 21.2528 0 20.1823 0ZM22.2005 20.6667C22.2005 21.2148 21.9879 21.7404 21.6094 22.128C21.2309 22.5156 20.7176 22.7333 20.1823 22.7333H4.03646C3.50119 22.7333 2.98785 22.5156 2.60935 22.128C2.23086 21.7404 2.01823 21.2148 2.01823 20.6667V4.13333C2.01823 3.58522 2.23086 3.05955 2.60935 2.67198C2.98785 2.2844 3.50119 2.06667 4.03646 2.06667H20.1823C20.7176 2.06667 21.2309 2.2844 21.6094 2.67198C21.9879 3.05955 22.2005 3.58522 22.2005 4.13333V20.6667ZM12.1094 6.19971C10.9119 6.19971 9.74126 6.56333 8.74557 7.2446C7.74989 7.92586 6.97384 8.89417 6.51558 10.0271C6.05731 11.16 5.93741 12.4066 6.17103 13.6093C6.40465 14.8119 6.9813 15.9167 7.82807 16.7838C8.67483 17.6509 9.75367 18.2413 10.9282 18.4806C12.1027 18.7198 13.3201 18.597 14.4264 18.1278C15.5328 17.6585 16.4784 16.8638 17.1437 15.8442C17.809 14.8247 18.1641 13.6259 18.1641 12.3997C18.1641 10.7554 17.5262 9.17837 16.3907 8.01565C15.2552 6.85292 13.7152 6.19971 12.1094 6.19971ZM12.1094 16.533C11.311 16.533 10.5306 16.2906 9.86684 15.8364C9.20305 15.3823 8.68569 14.7367 8.38018 13.9815C8.07467 13.2262 7.99473 12.3951 8.15048 11.5933C8.30623 10.7915 8.69066 10.0551 9.25517 9.477C9.81968 8.89894 10.5389 8.50528 11.3219 8.34579C12.1049 8.18631 12.9165 8.26816 13.6541 8.581C14.3916 8.89385 15.022 9.42363 15.4656 10.1033C15.9091 10.7831 16.1458 11.5822 16.1458 12.3997C16.1458 13.4959 15.7206 14.5473 14.9636 15.3224C14.2066 16.0976 13.1799 16.533 12.1094 16.533ZM20.1826 5.6833C20.1826 6.53934 19.5049 7.2333 18.6689 7.2333C17.833 7.2333 17.1553 6.53934 17.1553 5.6833C17.1553 4.82726 17.833 4.1333 18.6689 4.1333C19.5049 4.1333 20.1826 4.82726 20.1826 5.6833Z" fill="#696767"/>
</svg>
