<svg width="21" height="17" viewBox="0 0 21 17" fill="none" xmlns="http://www.w3.org/2000/svg">
<path fill-rule="evenodd" clip-rule="evenodd" d="M10.5 3.24486L11.1112 2.64066C12.0328 1.72669 13.499 1 14.8047 1C16.1092 1 17.3601 1.51352 18.2829 2.42748C18.3745 2.51817 18.4672 2.61003 18.56 2.7019C19.4827 3.61469 20 4.8549 20 6.14693C20 7.43896 19.4827 8.67799 18.56 9.59196C16.5919 11.5401 15.4116 12.7103 13.2148 14.8861C11.7153 16.3713 9.2847 16.3713 7.7852 14.8861C6.00348 13.1214 4.22176 11.3567 2.44004 9.59196C1.51727 8.67799 1 7.43896 1 6.14693C1 4.8549 1.51727 3.61469 2.44004 2.7019C2.5328 2.61003 2.62555 2.51817 2.71711 2.42748C3.63988 1.51352 4.89085 1 6.19533 1C7.501 1 8.96602 1.72552 9.88878 2.63948L10.5 3.24486Z" stroke="#C41E3A" stroke-width="2" style="mix-blend-mode:multiply"/>
</svg>
