<svg width="22" height="20" viewBox="0 0 22 20" fill="none" xmlns="http://www.w3.org/2000/svg">
<path d="M15.5 3.85955L12.0339 1.336C11.4191 0.887999 10.5809 0.887999 9.96609 1.336L1.70522 7.35021C1.26174 7.67315 1 8.18454 1 8.72848V18.1434C1 18.6162 1.38957 19 1.86957 19H20.1304C20.6104 19 21 18.6162 21 18.1434V8.72848C21 8.18454 20.7383 7.67315 20.2948 7.35021L16.5 4.58766" stroke="white" stroke-width="2" stroke-linecap="round" stroke-linejoin="round"/>
<path fill-rule="evenodd" clip-rule="evenodd" d="M8.8266 6.15093L7.95703 7.00753L11.0005 10.0056L18.3918 2.72452L17.5222 1.86792L11.0005 8.29244L8.8266 6.15093Z" stroke="white" stroke-width="2" stroke-linecap="round" stroke-linejoin="round"/>
<path d="M20.9997 8.7207L3.6084 18.9999" stroke="white" stroke-width="2" stroke-linecap="round" stroke-linejoin="round"/>
<path d="M1 8.7207L11 14.2886" stroke="white" stroke-width="2" stroke-linecap="round" stroke-linejoin="round"/>
</svg>
