<svg width="54" height="53" viewBox="0 0 54 53" fill="none" xmlns="http://www.w3.org/2000/svg">
<rect x="40.2949" y="-15.2029" width="18.262" height="77.6622" transform="rotate(45 40.2949 -15.2029)" fill="#09A603"/>
<path d="M18.8628 24.4215L17.9893 25.2951L12.1819 23.9692L15.7485 27.5358L14.875 28.4094L9.84787 23.3823L10.7214 22.5087L16.5495 23.8415L12.9691 20.2611L13.8357 19.3944L18.8628 24.4215ZM20.5891 18.2067L18.5244 20.2714L20.0712 21.8182L22.4846 19.4048L23.1821 20.1022L19.8951 23.3892L14.8681 18.3621L18.1308 15.0993L18.8352 15.8037L16.4459 18.1929L17.8339 19.5809L19.8986 17.5162L20.5891 18.2067ZM26.5933 14.2051L23.5826 9.64755L24.4492 8.78093L28.3162 14.9681L27.4807 15.8037L22.8541 13.0899L25.5472 17.7372L24.7082 18.5762L18.521 14.7092L19.3876 13.8425L23.9451 16.8395L21.1277 12.1024L21.8597 11.3704L26.5933 14.2051Z" fill="white"/>
</svg>
