<svg width="18" height="18" viewBox="0 0 18 18" fill="none" xmlns="http://www.w3.org/2000/svg">
<path d="M14.1439 3.57184C13.4679 2.50351 12.7053 1.65108 11.8775 1.03816C10.947 0.349313 9.97898 0 9.00041 0C8.02183 0 7.05384 0.349313 6.12336 1.03816C5.2955 1.65108 4.53293 2.50351 3.85687 3.57184C2.58502 5.58165 1.79492 8.13586 1.79492 10.2377C1.79492 12.306 2.54104 14.2517 3.89586 15.7166C5.25771 17.1891 7.0705 18 9.00041 18C10.9303 18 12.7431 17.1891 14.105 15.7166C15.4598 14.2517 16.2059 12.306 16.2059 10.2377C16.2059 8.13586 15.4158 5.58165 14.1439 3.57184ZM6.54172 1.60327C7.34852 1.006 8.17575 0.703125 9.00041 0.703125C9.82507 0.703125 10.6523 1.006 11.4591 1.60327C12.117 2.09039 12.7561 2.77741 13.3232 3.60422L12.8078 4.11961C12.3485 4.57889 11.6011 4.57889 11.1418 4.11961L10.3306 3.30834C9.97525 2.95305 9.50286 2.75738 9.00041 2.75738C8.49795 2.75738 8.02552 2.95302 7.67023 3.30834L6.85897 4.11964C6.39965 4.57893 5.6523 4.57893 5.19298 4.11964L4.67759 3.60425C5.24466 2.77745 5.88377 2.09043 6.54172 1.60327ZM4.28989 4.21091L4.6958 4.61682C5.06252 4.98354 5.54427 5.16688 6.02598 5.16688C6.50769 5.16688 6.9894 4.98354 7.35615 4.61682L8.16741 3.80556C8.38992 3.58305 8.68576 3.46054 9.00041 3.46054C9.31505 3.46054 9.61089 3.58305 9.83336 3.80556L10.6447 4.61682C11.3781 5.35025 12.5715 5.35025 13.305 4.61682L13.7109 4.21091C14.3178 5.22763 14.7968 6.37038 15.1062 7.50607H13.0504C12.9825 7.25305 12.8495 7.01402 12.6513 6.81585C12.0481 6.21271 11.0667 6.21271 10.4635 6.81585L9.77845 7.5009C9.55236 7.36014 9.28577 7.2785 9.00041 7.2785C8.71504 7.2785 8.44845 7.36014 8.22236 7.5009L7.53731 6.81585C6.93413 6.21271 5.95271 6.21267 5.3495 6.81585C5.15132 7.01402 5.01833 7.25305 4.95037 7.50607H2.89464C3.20405 6.37035 3.68306 5.22763 4.28989 4.21091ZM12.1541 9.00366C12.4832 9.33268 12.4832 9.86804 12.1541 10.1971C11.8252 10.5261 11.2898 10.5261 10.9607 10.1971L10.2705 9.50688C10.4015 9.28649 10.477 9.0295 10.477 8.75507C10.477 8.48064 10.4015 8.22364 10.2705 8.00325L10.9607 7.31306C11.2897 6.98404 11.8251 6.98404 12.1541 7.31306C12.4832 7.64209 12.4832 8.17745 12.1541 8.50648C12.0168 8.64373 12.0168 8.86634 12.1541 9.00366ZM5.84668 8.50644C5.51765 8.17741 5.51765 7.64205 5.84668 7.31303C6.17567 6.984 6.71107 6.984 7.04009 7.31303L7.73028 8.00321C7.59932 8.22361 7.52384 8.4806 7.52384 8.75503C7.52384 9.02946 7.59932 9.28645 7.73028 9.50685L7.04009 10.197C6.7111 10.5261 6.17571 10.5261 5.84668 10.197C5.51765 9.86801 5.51765 9.33265 5.84668 9.00362C5.98396 8.86634 5.98396 8.64373 5.84668 8.50644ZM8.22697 8.75503C8.22697 8.32855 8.57393 7.98159 9.00041 7.98159C9.42689 7.98159 9.77384 8.32855 9.77384 8.75503C9.77384 9.18151 9.42689 9.52847 9.00041 9.52847C8.57393 9.52847 8.22697 9.18151 8.22697 8.75503ZM9.00041 17.2969C6.93448 17.2969 5.09064 16.2454 3.89871 14.6096C4.31137 14.5944 4.7157 14.4272 5.02473 14.1181L5.7288 13.414C6.10933 13.0335 6.72847 13.0335 7.109 13.414L7.81311 14.1182C8.46775 14.7728 9.53299 14.7728 10.1877 14.1182L10.8917 13.4141C11.2723 13.0335 11.8914 13.0335 12.2719 13.4141L12.976 14.1182C13.2851 14.4272 13.6895 14.5943 14.1022 14.6094C12.9103 16.2452 11.0664 17.2969 9.00041 17.2969ZM14.6144 13.7956C14.2385 13.9924 13.7769 13.9246 13.4733 13.6209L12.7692 12.9168C12.452 12.5997 12.0303 12.4251 11.5819 12.4251C11.1334 12.4251 10.7117 12.5997 10.3946 12.9169L9.69052 13.6209C9.30999 14.0015 8.69082 14.0014 8.31032 13.6209L7.60625 12.9168C7.2891 12.5997 6.86744 12.4251 6.41899 12.4251C5.9705 12.4251 5.54884 12.5997 5.23169 12.9168L4.52758 13.6209C4.2239 13.9246 3.7623 13.9924 3.38641 13.7956C2.82212 12.7503 2.49808 11.5344 2.49808 10.2377C2.49808 10.1605 2.49963 10.0825 2.50188 10.004H4.95041C5.01836 10.257 5.15136 10.4961 5.34954 10.6942C5.65114 10.9958 6.04728 11.1466 6.44342 11.1466C6.8396 11.1466 7.23574 10.9958 7.53734 10.6942L8.2224 10.0092C8.44849 10.15 8.71508 10.2316 9.00044 10.2316C9.2858 10.2316 9.55239 10.15 9.77848 10.0092L10.4635 10.6942C10.7651 10.9958 11.1613 11.1466 11.5575 11.1466C11.9536 11.1466 12.3498 10.9958 12.6513 10.6942C12.8495 10.4961 12.9825 10.257 13.0505 10.004H15.499C15.5013 10.0825 15.5028 10.1605 15.5028 10.2377C15.5028 11.5344 15.1787 12.7503 14.6144 13.7956Z" fill="#C41E3A" style="mix-blend-mode:multiply"/>
</svg>
