<svg width="22" height="22" viewBox="0 0 22 22" fill="none" xmlns="http://www.w3.org/2000/svg">
<path fill-rule="evenodd" clip-rule="evenodd" d="M20.8879 10.8886H1V8.17665C1 7.17773 1.80908 6.36865 2.808 6.36865H19.08C20.0789 6.36865 20.8879 7.17773 20.8879 8.17665V10.8886V10.8886Z" stroke="#18AD83" stroke-width="2" stroke-linecap="round" stroke-linejoin="round" style="mix-blend-mode:multiply"/>
<path fill-rule="evenodd" clip-rule="evenodd" d="M18.1763 20.8326H3.71229C2.71337 20.8326 1.9043 20.0236 1.9043 19.0247V10.8887H19.9843V19.0247C19.9843 20.0236 19.1752 20.8326 18.1763 20.8326V20.8326Z" stroke="#18AD83" stroke-width="2" stroke-linecap="round" stroke-linejoin="round" style="mix-blend-mode:multiply"/>
<path fill-rule="evenodd" clip-rule="evenodd" d="M6.61014 3.1397C7.1652 5.00736 8.89545 6.36878 10.943 6.36878C10.943 4.32123 9.58158 2.59098 7.71392 2.03592C7.05491 1.83976 6.41397 2.48069 6.61014 3.1397V3.1397Z" stroke="#18AD83" stroke-width="2" stroke-linecap="round" stroke-linejoin="round" style="mix-blend-mode:multiply"/>
<path fill-rule="evenodd" clip-rule="evenodd" d="M15.2782 3.1397C14.7231 5.00736 12.9929 6.36878 10.9453 6.36878C10.9453 4.32123 12.3067 2.59098 14.1744 2.03592C14.8334 1.83976 15.4743 2.48069 15.2782 3.1397V3.1397Z" stroke="#18AD83" stroke-width="2" stroke-linecap="round" stroke-linejoin="round" style="mix-blend-mode:multiply"/>
<path d="M10.9444 20.8326V6.36865L8.23242 9.08065" stroke="#18AD83" stroke-width="2" stroke-linecap="round" stroke-linejoin="round" style="mix-blend-mode:multiply"/>
<path d="M10.9434 6.36865L13.6554 9.08065" stroke="#18AD83" stroke-width="2" stroke-linecap="round" stroke-linejoin="round" style="mix-blend-mode:multiply"/>
</svg>
