<svg width="16" height="16" viewBox="0 0 16 16" fill="none" xmlns="http://www.w3.org/2000/svg">
<path fill-rule="evenodd" clip-rule="evenodd" d="M11.3868 13.3814C10.221 14.1693 8.81722 14.629 7.30594 14.629C3.2741 14.629 0 11.3511 0 7.31452C0 3.27795 3.2741 0 7.30594 0C11.3378 0 14.6119 3.27795 14.6119 7.31452C14.6119 8.81714 14.1579 10.2153 13.3803 11.3783L15.5867 13.5862C16.1378 14.1379 16.1378 15.0345 15.5867 15.5862C15.0356 16.1379 14.1401 16.1379 13.589 15.5862L11.3868 13.3814ZM7.30593 2.58829C9.91207 2.58829 12.0266 4.70532 12.0266 7.31452C12.0266 9.92371 9.91207 12.0407 7.30593 12.0407C4.6998 12.0407 2.58525 9.92371 2.58525 7.31452C2.58525 4.70532 4.6998 2.58829 7.30593 2.58829Z" fill="white"/>
</svg>
