<svg width="38" height="22" viewBox="0 0 38 22" fill="none" xmlns="http://www.w3.org/2000/svg">
<path d="M31.5138 12.6154C30.904 11.8454 31.0785 11.5029 31.5138 10.8146C31.5216 10.8067 36.5549 3.85157 37.0735 1.49286L37.0766 1.49129C37.3343 0.631714 37.0766 0 35.8305 0H31.707C30.6573 0 30.1733 0.542143 29.914 1.14871C29.914 1.14871 27.8146 6.17414 24.8446 9.43171C23.886 10.373 23.4429 10.6747 22.9196 10.6747C22.6619 10.6747 22.2612 10.373 22.2612 9.51343V1.49129C22.2612 0.460428 21.9673 0 21.0983 0H14.6146C13.9562 0 13.5649 0.480857 13.5649 0.928714C13.5649 1.90614 15.0499 2.13086 15.2039 4.88086V10.8476C15.2039 12.155 14.9666 12.3954 14.4402 12.3954C13.0385 12.3954 9.63632 7.34957 7.62018 1.57457C7.21318 0.454143 6.81561 0.00157131 5.75804 0.00157131H1.63304C0.456036 0.00157131 0.21875 0.543714 0.21875 1.15029C0.21875 2.222 1.62046 7.55071 6.73704 14.5907C10.147 19.3961 14.9493 22 19.3179 22C21.9438 22 22.2643 21.4217 22.2643 20.427C22.2643 15.8353 22.027 15.4016 23.3423 15.4016C23.952 15.4016 25.0017 15.7033 27.4532 18.0211C30.255 20.7696 30.7155 22 32.2837 22H36.4072C37.5826 22 38.1782 21.4217 37.8356 20.2809C37.0515 17.8813 31.7526 12.9454 31.5138 12.6154Z" fill="#696767"/>
</svg>
